<?xml version="1.0" encoding="UTF-8"?>
<svg id="Layer_1" data-name="Layer 1" xmlns="http://www.w3.org/2000/svg" viewBox="0 0 297.24 288">
  <defs>
    <style>
      .cls-1, .cls-2 {
        fill: none;
      }

      .cls-3 {
        fill: #f5f3e0;
      }

      .cls-3, .cls-4, .cls-2 {
        stroke: #bb4727;
        stroke-miterlimit: 10;
        stroke-width: 8px;
      }

      .cls-4 {
        fill: #6c6c6c;
      }
    </style>
  </defs>
  <g id="Logo">
    <g>
      <polygon class="cls-3" points="220.62 21.3 146.95 21.3 76.62 21.3 4.62 146.01 40.27 207.75 65.22 159.74 83.5 201.34 112.25 140.32 124.71 173.87 146.95 124.35 164.77 187.83 210.73 77.26 226.06 128.13 253.64 78.49 220.62 21.3"/>
      <polygon class="cls-4" points="253.64 78.49 226.06 128.13 210.73 77.26 164.77 187.83 146.95 124.35 124.71 173.87 112.25 140.32 83.5 201.34 65.22 159.74 40.27 207.75 76.62 270.71 148.62 270.71 220.62 270.71 292.62 146.01 253.64 78.49"/>
    </g>
    <polygon class="cls-2" points="220.62 21.3 76.62 21.3 4.62 146.01 76.62 270.71 220.62 270.71 292.62 146.01 220.62 21.3"/>
    <rect class="cls-1" x="4.62" width="288" height="288"/>
  </g>
</svg>